<svg xmlns="http://www.w3.org/2000/svg" viewBox="0 0 596.04 173.36"><defs><style>.brushred{fill:#a11c31;}</style></defs><g id="Layer_2" data-name="Layer 2"><g id="Layer_2-2" data-name="Layer 2"><path class="brushred" d="M547.25,20.37c-3.23,0-6.37.05-9.47.2s-6.19.38-9.26.67a284.8,284.8,0,0,0-36.68,6.16q-18.51,4.26-37.21,7.38c-10.09,1.69-20.32,2.43-30.38-.26A204.17,204.17,0,0,1,404.59,28c-10.29-3.93-20.47-3.56-30.73-7.63-20-8-40.58-12.57-61.82-12.41a108.22,108.22,0,0,0-32.3,5c-23.87,7.64-35,9.18-55.5,11.3-9.82,1-19.3,4.84-29,7-8.05,1.79-16.11.85-24.08-.87A144.15,144.15,0,0,1,155,26.1c-18.45-6.24-37.3-8.39-56.39-7.84a166.28,166.28,0,0,0-33.91,5Q61.38,24.06,58,25c-9.64,2.25-21.88.56-31.81,1l-1.84.1c-7.25,2.66-15.25-2-21.25,5a5.64,5.64,0,0,0,.51,5.11A11.52,11.52,0,0,0,4.7,37.7c4.47,3.52,3.85,8,3,12.47-.13.64-.25,1.27-.37,1.9A26,26,0,0,1,8.56,62c-.05.6-.14,1.2-.25,1.8,1.78,7.06,5.78,10.57-1,14.87-.09.82-.14,1.65-.19,2.49s-.1,1.69-.16,2.53a13.69,13.69,0,0,1-.36,2.58c-2.22,1.35-3,4.6-2.75,7.79,0,.64.11,1.28.15,1.92.7,2-.4,3.18-1.51,4.79-.28.41-.55.84-.81,1.31-4,4.46,0,8.6,2.3,12.55.33.57.62,1.13.89,1.7,1.63,3.68,2.6,7.23,2.27,10.91A16.46,16.46,0,0,1,6.37,131c-.28,4.33-1.28,9,1.72,13.49.37.76.69,1.43,1.07,2.1,2.47,3.79,8.4,5.28,11.83,8.34.66.44,1.29.81,2,1.17,10.21,5.34,22.71,1.62,33.46,2.17,2.58-.08,5.16-.2,7.72-.34,12.83-.73,25.54-2.19,38.21-4.06q18.53-2.74,37.21-4.76c10.09-1.09,20.32-1.56,30.38.17,6.64,1.15,13.19,2.64,19.67,4.23,10.29,2.54,20.47,5.31,30.72,7.94a243.64,243.64,0,0,0,61.83,8,189.6,189.6,0,0,0,32.3-3.2c18.54-3.3,37-7,55.49-10.3,9.6-1.73,19.31-3.12,29-4.51,8.05-1.15,16.1-.54,24.07.56,5.42.75,10.85,1.56,16.13,2.72a242.57,242.57,0,0,0,56.39,5,251.93,251.93,0,0,0,33.91-3.21q3.34-.53,6.69-1.09c10.51-.85,22.58.63,32.37-.08.67,0,1.32-.12,2-.2,7.61-1.09,17.61.08,23.29-8.39A7.19,7.19,0,0,0,595,145.5c1.34-1.78,1.61-4.2-.16-7.64-.34-.61-.73-1.25-1.07-1.94a8.09,8.09,0,0,1-1-4.63c0-.79.16-1.55.26-2.32.18-1.23.32-2.48.43-3.75.06-.63.11-1.27.14-1.91-3.47-7.94-5.47-6.77-2.21-14.54a17.52,17.52,0,0,1-1.21-2c-1.87-3.78.16-6.55,3.79-9.73a7.72,7.72,0,0,0,.85-1.7c1.18-3.43-.69-7-3.69-10.46-1-1.17,2-2.35,2.49-5.08a5.46,5.46,0,0,0,.22-1.9c-.18-3.09-2.84-6-4.71-9.92L589,66.65c-3.91-6.35-.91-12.2.66-18.12.27-.38.51-.73.72-1.08,2-3.09,2-5,.84-6.85a9.7,9.7,0,0,0-1.05-1.38c-4.08-7-8.08-14.06-16.13-15.73-.64-.29-1.3-.55-2-.79A39.57,39.57,0,0,0,556.76,21,80.23,80.23,0,0,0,547.25,20.37Zm-541,126.1c1.15.49,2.3.95,3.45,1.4A100.21,100.21,0,0,0,27,153l1.59.49c.51.16,1,.34,1.52.54a13.07,13.07,0,0,0-1.57-.5c-.56-.15-1.13-.27-1.71-.39-5.38-.23-10.29-2.52-15.74-4.67-1.36-.54-2.76-1.07-4.2-1.55A3.38,3.38,0,0,1,6.21,146.47ZM68.11,155c-2.91.34-5.86.46-8.8.61a4.86,4.86,0,0,1-1.54-.47,8.88,8.88,0,0,1,1.43-1,3.14,3.14,0,0,1,1.32-.12,66.19,66.19,0,0,0,15.15-.67l0,.34C73.17,154.15,70.67,154.72,68.11,155Zm98.1-8.53c-3.91,0-7.82,0-11.73,0a228.87,228.87,0,0,0-30.78,2.4c-5,.69-10,1.17-15,1.75l-9,1.05-.09-.37c.78-.13,1.55-.28,2.33-.39q12.78-1.78,25.55-3.55a192.31,192.31,0,0,1,37.17-1.23c.54,0,1.07.11,1.61.17Zm18.57,3.29c2.32-.61,17,3.12,20.12,4.86Zm51.51,7.64c-5.43-1.21-10.83-2.47-16.25-3.72-.75-.17-1.48-.39-2.22-.59l.1-.27,7.12,1.4c11.74,2.28,23.4,4.92,35.47,6,7.44.66,15,.79,22.47,1.16.83,0,1.67.06,2.51.09v.32c-3.63.09-7.26.28-10.88.25A183.24,183.24,0,0,1,236.29,157.41Zm45.28,8.69c5.07-.13,10.19,0,15.21-.45,8.05-.74,16-1.85,24-2.82,1.09-.13,2.16-.32,3.51-.53C318.84,165,289.55,167.6,281.57,166.1ZM381,149.53c1-1.33,11.42-3.35,13.06-2.68Zm21.58-1.11c3.68-1.86,21.24-.17,31.11,2.85A136.3,136.3,0,0,0,402.56,148.42Zm22.69-1.6c2.77-.65,11,.72,14.18,2.2ZM452.8,155l-4.45-.86.19-.57,4.51.77ZM505,157.07l-.07-.67h8.78A24.28,24.28,0,0,1,505,157.07Zm64-5.47-3.76,0c-8.83.07-18.31.24-26.8,1.64q-6.15,1.07-12.35,1.95a26.54,26.54,0,0,1-3.68,0l-.06-.31,1.59-.24c2.5-.39,5-.67,7.49-1.18,2.78-.57,5.56-1.05,8.37-1.44,8.86-.35,16.74-2.12,25.06-1.34,1.39.13,2.79.33,4.22.6ZM586.56,35.87c-6.47-2.51-12.47-4.86-18-6.71-.59-.26-1.17-.53-1.75-.81s-1.17-.56-1.75-.85c.67.2,1.3.42,1.92.67s1.22.5,1.81.75c5.27,3.27,12.27.92,17.19,6.28A5.09,5.09,0,0,1,586.56,35.87ZM526.07,25.55c2.9-.52,5.86-.72,8.8-.95.22.56,1.22.56,1.22.56a5.3,5.3,0,0,1-2.43,1.9,52.3,52.3,0,0,0-7.61-.15,36.3,36.3,0,0,0-7.54,1.19l0-.53C521,26.88,523.51,26,526.07,25.55ZM428,38.78c3.91,0,7.82,0,11.73,0a149.11,149.11,0,0,0,30.78-3.73c5-1.08,10-1.82,15-2.72l9-1.62.09.56c-.77.21-1.54.45-2.33.62q-12.76,2.76-25.55,5.5a124.69,124.69,0,0,1-37.16,1.92c-.54-.05-1.07-.18-1.61-.27Zm-18.58-5.1c-2.32.94-17-4.84-20.12-7.54Zm-51.51-7.16c5.43,1.87,10.84,3.83,16.26,5.76.75.27,1.48.62,2.22.93l-.11.41-7.11-2.17c-11.74-3.54-23.4-7.63-35.47-9.31-7.45-1-15-1.23-22.47-1.8-.84-.07-1.67-.1-2.51-.15V19.7c3.63-.14,7.26-.43,10.89-.39C332.64,19.47,345.38,22.2,357.88,26.52ZM312.61,13c-5.08.2-10.19,0-15.21.71-8,1.13-16,2.87-24,4.37-1.09.2-2.17.5-3.51.82C275.34,14.8,304.63,10.7,312.61,13Zm-99.41,21c-1,2.06-11.42,5.19-13.06,4.17Zm-21.58,1.72c-3.68,2.88-21.24.27-31.12-4.42A90.19,90.19,0,0,0,191.62,35.78Zm-22.69,2.48c-2.77,1-11-1.11-14.19-3.41ZM141.38,25.59l4.45,1.34-.19.88-4.51-1.19ZM89.22,22.35l.07,1H80.51A16.24,16.24,0,0,1,89.22,22.35ZM23.86,30.6a20.78,20.78,0,0,0,4.21.5c.68,0,1.36.06,2,.07,8.76.16,17-1.63,25.57-2.93,4.21-1.11,8.34-2.12,12.47-3a17.38,17.38,0,0,1,3.68,0l.06.49-1.6.37c-2.49.6-5,1-7.5,1.82-12,3-24.25,5.25-36.7,3.6-.75-.15-1.5-.29-2.27-.46C23.82,30.85,23.84,30.73,23.86,30.6Z"></path><path class="brushred" d="M467.18,29.33c-13.59,2.48-27.25,1.71-40.92.89A83.62,83.62,0,0,0,467.18,29.33Z"></path><path class="brushred" d="M113.39,11.51A38.79,38.79,0,0,1,127,13.71a23.06,23.06,0,0,0-11.1-3.33c-5.53-.39-11,.54-16.47,1.28l0,.74C104.14,12.1,108.76,11.71,113.39,11.51Z"></path><path class="brushred" d="M552.77,13.73c-4.68-.29-9.68-.29-14.34-.38-3.11.29-6.4.71-9.54,1.23s-6.16,1.14-8.72,1.8c2.7-.46,5.4-.92,8.1-1.33s5.41-.77,8.11-1.05,5.41-.47,8.12-.53A74.16,74.16,0,0,1,552.77,13.73Z"></path><path class="brushred" d="M407.22,24.88a27.31,27.31,0,0,0,4.58,1l-.35-.17c-3.2-1.35-6.42-2.61-9.64-3.88-2.2-.86-4.41-1.67-6.62-2.5,0,.16-.09.31-.13.46.7.32,1.4.67,2.12,1C400.52,22.16,403.82,23.72,407.22,24.88Z"></path><path class="brushred" d="M414.7,27.29a1,1,0,0,0,.09-.6,1.16,1.16,0,0,0-.62-.38c-.78-.16-1.58-.29-2.37-.42.72.38,1.38.91,2.09,1.31A1.38,1.38,0,0,0,414.7,27.29Z"></path><path class="brushred" d="M300.82,1.82,320.94.21C315-.49,307.58.68,300.82,1.82Z"></path><path class="brushred" d="M61,19c-2.43.51-4.89,1-7.4,1.52s-5.1,1-7.76,1.52a35.26,35.26,0,0,0,7.89-.54A26.33,26.33,0,0,0,61,19Z"></path><path class="brushred" d="M173.32,26.15l-10.57-1.88C166.16,26.12,169.58,27.45,173.32,26.15Z"></path><path class="brushred" d="M432.67,23.9l.06-.8-9.48-.57C426.52,23.81,429.53,24.64,432.67,23.9Z"></path><path class="brushred" d="M127,152.57c13.59-1.59,27.25-1.1,40.92-.57A128.83,128.83,0,0,0,127,152.57Z"></path><path class="brushred" d="M480.79,164.05a58.31,58.31,0,0,1-13.66-1.41,33,33,0,0,0,11.11,2.14A125.43,125.43,0,0,0,494.7,164l0-.48C490,163.68,485.42,163.92,480.79,164.05Z"></path><path class="brushred" d="M41.31,162.63c4.78,1.94,9.78-.4,14.44.24,3.11-.19,6.39-.46,9.54-.8s6.16-.73,8.72-1.15c-2.7.3-5.4.59-8.11.85s-5.4.5-8.1.68-5.42.31-8.16.35S44.12,162.79,41.31,162.63Z"></path><path class="brushred" d="M187,155.44a43,43,0,0,0-4.59-.65l.36.11c3.19.87,6.41,1.68,9.64,2.5,2.19.55,4.41,1.07,6.61,1.61l.14-.3-2.12-.62C193.66,157.19,190.36,156.19,187,155.44Z"></path><path class="brushred" d="M179.48,153.89c-.06,0-.17.32-.09.39a1.28,1.28,0,0,0,.62.24c.78.1,1.57.19,2.36.27-.71-.24-1.38-.58-2.09-.84A1.94,1.94,0,0,0,179.48,153.89Z"></path><path class="brushred" d="M294.22,172.68l-19.3.44C280.74,173.67,287.77,173.18,294.22,172.68Z"></path><path class="brushred" d="M533.21,159.24l7.3-1,7.35-1a48.77,48.77,0,0,0-7.49.36A37.28,37.28,0,0,0,533.21,159.24Z"></path><path class="brushred" d="M420.86,154.63l10.57,1.21C428,154.65,424.59,153.79,420.86,154.63Z"></path><path class="brushred" d="M161.51,156.08l-.06.51,9.48.37A23.32,23.32,0,0,0,161.51,156.08Z"></path></g></g></svg>