<svg xmlns="http://www.w3.org/2000/svg" viewBox="0 0 12.89 35.04"><defs><style>.cls-1{fill:#0a549e;}</style></defs><g id="Layer_2" data-name="Layer 2"><g id="Ñëîé_1" data-name="Ñëîé 1"><path class="cls-1" d="M10.74,24.3a14.74,14.74,0,0,0-1.45,2.26L8,28.71l-.57,1v-.06c-.17-1.42-.33-2.83-.49-4.25-.31-2.74-.6-5.49-.9-8.24s-.57-5.49-.85-8.24-.53-5.64-1-8.43C4.05-.27,3-.07,2.94.62a83.46,83.46,0,0,0,.34,8.52q.32,4.13.67,8.25c.24,2.75.53,5.49.83,8.24.15,1.41.31,2.83.47,4.24v0l-.78-1.14a28,28,0,0,0-3.17-3.93c-.51-.48-1.54,0-1.26.74a27.93,27.93,0,0,0,2.74,5.11l1.59,2.47c.51.79,1,1.9,2.08,1.88s1.53-1.19,2-2l1.47-2.49,1.41-2.37a15.8,15.8,0,0,0,1.49-2.7A1.25,1.25,0,0,0,10.74,24.3Z"/></g></g></svg>